<?xml version="1.0" standalone="no"?>
<!DOCTYPE svg PUBLIC "-//W3C//DTD SVG 20010904//EN"
 "http://www.w3.org/TR/2001/REC-SVG-20010904/DTD/svg10.dtd">
<svg version="1.0" xmlns="http://www.w3.org/2000/svg"
 width="1200.000000pt" height="1200.000000pt" viewBox="0 0 1200.000000 1200.000000"
 preserveAspectRatio="xMidYMid meet">
<metadata>
Created by potrace 1.14, written by Peter Selinger 2001-2017
</metadata>
<g transform="translate(0.000000,1200.000000) scale(0.100000,-0.100000)"
fill="#000000" stroke="none">
<path d="M1480 6000 l0 -4000 4310 0 4310 0 0 4000 0 4000 -4310 0 -4310 0 0
-4000z m4330 3716 c25 -2 77 -7 115 -10 39 -3 81 -8 95 -10 14 -2 50 -7 80
-10 48 -6 246 -37 321 -51 234 -44 573 -140 839 -237 129 -47 140 -50 240 -50
190 -2 241 24 316 159 68 123 103 170 140 188 40 19 92 14 131 -11 50 -32 79
-133 82 -278 3 -121 8 -174 25 -261 8 -38 18 -104 21 -145 4 -41 9 -83 11 -93
2 -10 6 -48 9 -85 3 -37 8 -85 11 -107 2 -22 7 -62 9 -90 3 -27 8 -66 10 -85
2 -19 7 -64 10 -100 3 -36 8 -81 11 -101 2 -20 6 -56 8 -80 5 -57 21 -203 31
-294 2 -22 7 -67 10 -100 3 -33 8 -78 10 -100 2 -22 7 -67 10 -100 3 -33 8
-78 10 -100 3 -22 7 -67 10 -100 3 -33 8 -80 10 -105 2 -25 7 -70 10 -100 3
-38 -1 -73 -14 -115 -18 -58 -20 -61 -67 -77 -47 -16 -87 -15 -110 4 -10 7
-181 361 -221 458 -8 19 -19 44 -24 55 -4 11 -36 89 -69 173 -138 350 -303
642 -504 892 -109 135 -258 290 -376 391 -41 35 -77 66 -80 69 -3 3 -41 33
-85 66 -158 118 -358 231 -524 295 -94 36 -271 87 -330 94 -23 3 -46 7 -50 9
-6 4 -61 11 -171 21 -36 3 -112 12 -170 20 -99 13 -418 14 -480 1 -14 -2 -43
-7 -65 -10 -317 -44 -622 -194 -845 -416 -223 -223 -330 -420 -368 -680 -9
-60 -8 -272 1 -334 18 -112 83 -283 124 -324 7 -7 13 -17 13 -22 0 -9 123
-176 149 -201 9 -9 34 -36 57 -60 114 -123 314 -275 484 -367 196 -106 222
-116 870 -323 491 -157 1074 -356 1360 -464 69 -26 168 -63 220 -82 52 -20
109 -41 125 -48 412 -174 454 -194 617 -292 353 -211 610 -473 762 -775 54
-106 94 -208 112 -278 2 -8 9 -35 15 -60 6 -25 13 -54 15 -65 1 -11 6 -31 10
-45 4 -14 9 -145 11 -291 l5 -266 -35 -109 c-20 -60 -43 -141 -52 -179 -49
-200 -236 -501 -450 -724 -296 -307 -764 -582 -1280 -752 -100 -33 -304 -88
-389 -105 -73 -14 -193 -35 -261 -44 -44 -6 -91 -13 -105 -15 -179 -26 -686
-26 -900 0 -19 2 -55 7 -80 10 -25 3 -56 7 -70 9 -14 3 -47 7 -73 11 -26 3
-71 10 -100 16 -29 5 -70 12 -92 15 -22 3 -53 9 -70 14 -16 5 -50 12 -75 16
-74 13 -120 24 -385 96 -121 33 -278 75 -350 94 -71 19 -179 48 -240 65 -60
16 -118 31 -127 34 -9 2 -51 13 -94 25 -123 35 -164 36 -226 8 -63 -30 -105
-68 -183 -168 -115 -146 -184 -200 -257 -200 -61 0 -77 11 -113 72 l-35 59 5
1481 c3 1123 7 1484 16 1495 22 25 53 36 111 39 48 3 62 -1 82 -19 66 -59 133
-271 207 -657 11 -58 29 -137 40 -177 11 -40 22 -82 24 -94 3 -12 11 -43 20
-69 9 -26 17 -55 19 -66 7 -34 93 -266 131 -354 51 -118 182 -370 240 -460
464 -721 995 -1049 1840 -1136 96 -10 472 -11 570 -1 135 13 281 38 375 63 30
9 65 17 77 20 63 13 244 83 369 144 279 137 565 371 695 570 97 148 164 339
186 534 15 128 8 421 -13 554 -13 80 -108 287 -188 411 -252 385 -605 633
-1219 855 -84 30 -308 100 -356 111 -9 2 -86 25 -171 50 -85 26 -180 53 -210
61 -588 158 -1261 386 -1645 557 -402 179 -714 427 -900 715 -88 138 -175 347
-200 481 -3 14 -8 37 -11 51 -4 14 -9 142 -11 285 l-4 260 35 100 c59 170 84
234 126 319 80 161 313 419 524 579 45 34 83 65 84 69 2 4 8 8 13 8 6 0 36 17
67 38 53 36 104 65 212 124 245 132 680 259 1002 293 29 3 62 8 74 10 12 3 68
7 125 11 57 3 106 8 107 9 6 5 560 -3 612 -9z m-2495 -101 c263 -3 481 -7 482
-9 3 -3 -61 -48 -292 -204 -178 -121 -280 -201 -375 -293 -182 -177 -312 -370
-389 -574 -13 -33 -27 -69 -32 -80 -24 -55 -54 -201 -69 -335 -9 -80 -6 -371
5 -430 25 -137 79 -360 104 -429 32 -89 103 -227 155 -301 91 -132 270 -316
408 -419 46 -34 90 -68 98 -75 9 -7 63 -42 120 -78 367 -230 771 -403 1285
-549 116 -33 273 -78 350 -101 77 -22 178 -50 225 -63 47 -13 191 -54 320 -90
129 -37 258 -72 285 -80 28 -7 106 -34 175 -58 399 -142 745 -335 1000 -557
130 -114 170 -161 246 -298 66 -117 78 -148 115 -289 38 -144 42 -170 44 -298
4 -209 -18 -335 -86 -503 -90 -221 -261 -408 -505 -552 -45 -27 -94 -59 -108
-71 l-26 -23 27 -28 c26 -27 26 -28 5 -28 -13 0 -39 7 -58 15 -57 23 -81 21
-209 -24 -162 -57 -349 -101 -525 -125 -19 -3 -55 -8 -80 -11 -70 -11 -477
-13 -560 -4 -130 14 -164 19 -186 23 -12 2 -38 7 -58 10 -82 13 -275 64 -333
87 -15 7 -32 13 -38 14 -31 7 -248 115 -304 150 -61 40 -83 55 -136 95 -76 57
-122 97 -210 185 -418 416 -703 996 -840 1705 -14 74 -45 198 -69 275 -25 77
-56 181 -71 230 -25 85 -31 93 -89 147 -33 32 -83 69 -110 84 -46 25 -54 26
-147 21 -138 -7 -182 -29 -229 -117 -19 -36 -48 -93 -63 -126 l-27 -62 0
-1474 c0 -1133 3 -1477 12 -1486 9 -9 -1 -12 -47 -13 -33 0 -196 -2 -362 -4
l-303 -4 -1 222 c-2 945 -9 3555 -13 5109 l-6 1877 28 15 c29 16 141 16 1467
1z m4326 -16 c11 -18 -15 -45 -57 -59 -50 -17 -194 4 -257 37 -32 16 -32 16
-8 25 72 26 305 24 322 -3z m1634 16 c83 -1 207 -3 278 -4 l127 -1 0 -3610 0
-3610 -412 -1 c-227 -1 -714 -3 -1083 -5 -368 -3 -685 -2 -702 1 -38 7 -43 21
-10 31 39 12 229 106 317 157 241 141 496 353 646 537 16 19 35 41 42 49 30
31 161 211 209 286 132 208 249 519 278 735 3 25 10 77 15 115 9 74 6 399 -4
450 -3 17 -9 46 -12 65 -12 67 -15 82 -29 133 -29 107 -38 133 -81 233 -99
231 -246 445 -444 644 -274 276 -561 448 -1120 672 -275 110 -462 176 -1120
394 -338 112 -624 208 -635 214 -11 5 -58 22 -105 39 -276 95 -595 223 -760
305 -210 104 -379 249 -497 424 -105 157 -139 277 -128 457 3 55 8 138 11 184
7 112 46 206 161 385 48 74 47 73 131 159 131 133 335 242 537 287 27 6 57 18
66 26 10 9 32 18 51 20 18 3 43 7 55 9 117 26 658 26 735 1 7 -3 31 -7 53 -10
22 -3 49 -7 60 -9 11 -3 38 -8 60 -12 22 -5 45 -9 50 -11 6 -2 21 -5 34 -8
261 -58 584 -221 811 -410 175 -146 293 -277 432 -481 196 -287 314 -529 623
-1286 102 -251 162 -309 327 -317 74 -4 97 -1 145 18 110 44 145 84 177 205
13 49 15 97 11 265 -3 113 -7 221 -9 240 -2 19 -7 69 -11 110 -4 41 -8 86 -11
100 -2 14 -6 59 -10 100 -3 41 -7 89 -9 105 -2 17 -6 59 -10 95 -3 36 -8 79
-10 97 -3 18 -7 63 -10 100 -4 37 -8 79 -10 91 -2 13 -7 60 -10 104 -4 45 -8
89 -10 99 -2 9 -7 53 -10 96 -11 131 -13 146 -19 198 -7 61 -14 132 -21 205
-3 30 -7 75 -10 100 -3 25 -7 70 -10 100 -3 30 -8 76 -10 103 -3 26 -7 70 -10
97 -3 28 -8 72 -11 100 l-5 50 383 -6 c211 -3 451 -7 533 -9z m-5627 -7157
c84 -28 151 -52 149 -54 -2 -2 -110 -7 -239 -10 -199 -5 -236 -3 -241 9 -9 25
16 58 68 87 61 34 62 34 263 -32z"/>
<path d="M1886 9562 c-15 -17 -16 -243 -12 -3123 3 -1707 5 -3308 5 -3556 l1
-453 310 0 310 0 0 1480 c0 1470 0 1480 21 1537 32 92 86 184 129 221 38 34
137 71 190 73 95 3 212 -33 263 -80 39 -36 112 -147 147 -225 27 -60 77 -199
85 -236 2 -8 17 -76 34 -150 37 -158 98 -435 104 -471 9 -48 60 -206 104 -319
204 -529 589 -1022 1011 -1295 186 -119 434 -213 634 -239 190 -25 255 -29
478 -30 274 -1 430 13 629 58 50 11 220 66 261 85 37 16 40 20 21 26 -52 16
-276 7 -466 -20 -55 -8 -125 -17 -155 -21 -30 -3 -82 -9 -115 -14 -63 -8 -272
-6 -315 4 -14 3 -38 8 -55 12 -132 25 -295 106 -430 213 -231 182 -394 406
-481 661 -18 52 -42 104 -53 116 -11 12 -52 38 -91 58 -103 54 -116 84 -74
171 19 40 61 77 117 100 l37 15 0 65 c0 61 -14 121 -61 255 -11 30 -22 67 -24
81 -6 33 -62 203 -82 249 -83 193 -200 352 -325 443 l-37 27 -11 -58 c-14 -66
-56 -117 -155 -185 -81 -56 -89 -61 -175 -103 -41 -20 -78 -38 -81 -40 -4 -2
-14 5 -23 15 -16 17 -15 23 23 95 39 75 118 183 163 221 108 93 96 87 162 80
54 -6 64 -4 80 13 18 21 18 21 67 -14 82 -60 190 -165 249 -245 110 -148 180
-311 226 -529 49 -235 57 -246 104 -144 93 205 293 404 540 536 36 19 164 79
285 133 121 54 247 110 280 125 109 50 149 68 210 95 33 14 71 37 85 50 14 14
43 33 64 43 l38 19 -124 42 c-67 24 -132 47 -143 51 -39 17 -236 75 -325 95
-23 6 -194 57 -435 130 -711 216 -958 307 -1310 481 -332 164 -543 304 -721
479 -188 185 -289 340 -378 578 -55 148 -86 288 -106 474 -7 73 -5 391 4 458
14 106 24 150 46 195 10 19 37 87 60 150 57 152 142 320 197 390 7 8 32 41 57
73 139 182 347 356 608 510 l132 77 -120 0 c-65 1 -468 3 -895 5 -743 5 -777
4 -793 -13z m871 -218 c19 -5 22 -11 17 -33 -14 -62 -12 -61 -45 -47 -34 14
-35 15 -20 56 11 32 13 33 48 24z m-457 -149 c35 -72 67 -186 75 -263 3 -32 8
-68 11 -82 3 -14 5 -95 5 -182 -1 -226 -21 -269 -211 -458 -93 -93 -137 -151
-164 -219 -26 -66 -22 -171 6 -171 6 0 23 13 38 29 38 39 134 74 180 66 43 -8
85 -33 124 -74 27 -28 30 -37 32 -119 3 -102 -11 -155 -51 -190 -29 -24 -29
-24 -118 -1 -61 16 -82 88 -35 118 27 16 36 6 47 -53 5 -27 14 -52 21 -56 33
-20 89 32 107 100 12 42 6 117 -11 168 -23 67 -87 93 -176 72 -47 -11 -89 -46
-117 -97 -43 -77 -65 -299 -38 -378 28 -85 73 -168 110 -207 l36 -38 46 43
c26 23 54 50 64 59 16 15 17 12 17 -56 -1 -122 21 -217 71 -310 25 -48 26 -53
25 -235 0 -211 -11 -273 -69 -399 -30 -63 -52 -92 -123 -162 -75 -72 -93 -97
-125 -168 -21 -45 -40 -103 -44 -130 l-6 -47 35 31 c19 17 57 41 83 54 l48 23
56 -29 c31 -16 76 -48 100 -71 l43 -42 -6 -58 c-17 -156 -52 -222 -132 -247
-41 -13 -77 52 -56 100 l12 24 42 -30 43 -30 22 25 c38 43 48 111 29 204 -7
33 -53 80 -95 98 -84 36 -165 -19 -214 -145 -24 -61 -32 -130 -31 -267 1 -117
2 -122 37 -190 40 -80 105 -158 150 -182 l31 -15 35 41 c20 23 45 41 56 41 18
0 20 -6 16 -51 -4 -58 10 -140 41 -244 16 -54 22 -104 24 -217 5 -227 -28
-400 -99 -521 -26 -44 -110 -129 -138 -139 -33 -13 -107 -129 -127 -200 -6
-18 -13 -41 -17 -50 -11 -28 24 -23 91 13 74 40 106 45 159 25 83 -32 125
-105 120 -208 -4 -88 -13 -122 -44 -157 -25 -29 -27 -30 -76 -20 -28 6 -62 19
-75 30 l-25 19 24 20 24 20 42 -35 c40 -32 43 -33 58 -17 24 26 44 83 42 117
0 17 -2 44 -3 61 -3 42 -58 122 -97 141 -93 44 -213 -62 -242 -214 -4 -21 -8
-99 -8 -173 0 -119 3 -140 22 -182 13 -26 23 -52 23 -57 0 -4 9 -20 20 -34 22
-28 46 -27 55 2 7 22 64 56 76 44 5 -5 3 -35 -5 -74 -7 -36 -12 -86 -11 -112
2 -26 0 -47 -5 -47 -12 0 -78 77 -114 133 -124 196 -147 527 -58 802 16 50 33
104 37 120 12 47 14 146 4 173 -7 19 -6 29 5 40 12 12 22 6 76 -47 l63 -62 30
28 c36 34 88 115 105 163 39 116 34 329 -11 419 -23 47 -89 120 -110 122 -84
7 -164 -29 -190 -83 -36 -77 -26 -181 23 -239 l27 -33 37 57 c33 51 39 56 56
45 66 -41 17 -128 -72 -128 -85 0 -148 152 -112 270 7 25 33 67 56 94 l42 48
60 -6 c90 -9 115 -15 159 -36 23 -11 42 -20 44 -20 7 0 -6 65 -17 96 -30 79
-54 111 -118 158 -111 82 -157 141 -202 255 -33 84 -42 145 -45 286 -4 183 29
386 73 453 18 28 24 184 9 255 l-8 37 50 -30 c28 -17 64 -44 80 -59 l31 -29
33 37 c48 54 72 97 103 186 25 71 28 94 28 210 1 104 -4 150 -23 229 -29 117
-54 149 -131 165 -84 18 -102 15 -142 -26 -44 -47 -55 -80 -54 -158 1 -56 4
-64 40 -103 22 -23 43 -42 47 -42 5 0 18 18 29 40 18 35 23 39 40 30 26 -14
35 -49 17 -67 -25 -25 -88 -42 -118 -31 -96 33 -129 250 -50 327 41 41 132 72
209 73 50 1 62 4 57 15 -3 8 -5 21 -5 28 0 22 -56 80 -125 129 -102 73 -112
89 -161 261 -25 87 -29 126 -28 270 2 160 23 281 79 447 l36 105 -15 63 c-12
52 -13 66 -2 82 14 20 10 24 110 -91 l28 -33 43 45 c101 107 140 277 111 475
-8 52 -69 171 -105 206 -27 26 -39 30 -84 29 -73 -1 -116 -25 -147 -83 -28
-52 13 -250 55 -266 8 -4 26 1 40 10 19 12 25 25 25 51 0 32 2 35 30 35 33 0
35 -6 18 -62 -13 -46 -25 -53 -95 -62 -50 -6 -52 -6 -79 29 -55 73 -62 173
-19 271 32 73 69 96 151 95 84 0 99 -5 157 -53 l47 -40 0 46 c0 75 -43 185
-126 324 -12 19 -5 15 20 -13 20 -22 50 -67 66 -100z m314 36 c21 -23 13 -61
-12 -61 -59 1 -77 26 -45 62 21 23 36 23 57 -1z m150 -104 c15 -11 16 -18 8
-34 -24 -43 -37 -45 -71 -11 -29 30 -30 34 -15 45 23 17 55 16 78 0z m94
-2693 c12 -8 22 -26 22 -40 0 -22 -4 -24 -46 -24 -42 0 -45 2 -39 23 4 12 9
30 11 40 6 21 23 22 52 1z m-139 -88 c6 -7 9 -24 7 -37 -3 -13 -5 -30 -5 -36
-1 -7 -12 -13 -26 -13 -37 0 -54 40 -31 75 18 28 38 32 55 11z m146 -106 c17
-19 17 -21 -10 -60 -15 -22 -29 -40 -31 -40 -1 0 -10 7 -18 16 -24 23 -20 70
6 88 29 20 31 20 53 -4z m1478 -502 c-77 -215 -159 -340 -251 -384 -34 -16
-35 -16 -65 14 -46 46 -42 84 18 167 66 94 101 132 160 175 41 30 154 100 162
100 2 0 -9 -33 -24 -72z m-469 -184 c24 -23 51 -56 60 -74 23 -47 21 -115 -4
-140 -26 -26 -37 -25 -90 10 -25 16 -49 30 -54 30 -4 0 -36 27 -70 59 -85 82
-143 183 -160 275 -5 26 0 24 135 -46 82 -43 158 -90 183 -114z m962 -111 c7
-28 -8 -49 -43 -58 -31 -7 -43 6 -43 52 0 39 23 56 57 40 13 -6 26 -21 29 -34z
m-123 -135 c22 -17 15 -41 -18 -58 -22 -12 -28 -11 -45 5 -24 22 -25 42 -4 66
17 19 27 17 67 -13z m191 2 c20 -7 26 -17 26 -38 0 -39 -16 -53 -46 -40 -19 9
-24 19 -24 50 0 41 4 43 44 28z m-880 -816 c9 -8 16 -22 16 -29 0 -19 -28 -45
-47 -45 -20 0 -53 29 -53 46 0 19 29 44 50 44 10 0 26 -7 34 -16z m-116 -180
c-2 -38 -7 -48 -25 -55 -29 -10 -53 12 -53 50 0 35 17 51 53 51 27 0 28 -1 25
-46z m216 28 c15 -18 15 -21 -5 -45 -29 -37 -59 -36 -59 2 0 61 29 81 64 43z"/>
<path d="M6154 5358 c1 -13 -13 -27 -39 -42 -198 -110 -270 -148 -452 -238
-114 -57 -233 -114 -263 -126 -30 -13 -72 -31 -93 -40 l-39 -17 109 0 c127 0
174 -6 268 -35 141 -44 263 -120 383 -238 68 -67 136 -170 207 -312 74 -148
156 -244 243 -286 55 -27 221 -27 251 0 12 11 18 22 14 25 -59 43 -98 157 -80
231 12 46 17 50 47 35 39 -20 94 -90 125 -158 l26 -56 47 30 c48 31 116 54
188 64 32 4 44 1 59 -15 14 -16 15 -22 5 -35 -18 -22 -131 -101 -155 -109 -20
-6 -75 -52 -75 -63 0 -3 6 -11 14 -17 40 -32 93 -176 82 -221 l-7 -26 -42 33
c-81 63 -110 93 -148 151 -21 32 -39 63 -41 68 -2 6 -19 5 -43 -4 -51 -17
-133 -20 -210 -7 -64 10 -185 65 -222 100 l-23 20 -6 -27 c-23 -103 -68 -166
-188 -261 -39 -31 -73 -59 -76 -62 -19 -24 -162 -120 -195 -131 -22 -7 -80
-13 -130 -13 -75 0 -102 5 -160 29 -38 15 -82 37 -98 47 -15 11 -58 24 -95 29
-50 7 -81 19 -122 46 -68 45 -158 134 -194 192 -28 44 -80 170 -73 177 2 2 23
-2 46 -10 23 -9 44 -15 46 -15 3 0 38 -12 77 -27 148 -56 281 -171 310 -268
l12 -39 13 68 c22 123 131 263 291 378 l53 38 -6 -48 c-17 -114 -58 -259 -95
-333 -26 -51 -51 -76 -114 -114 l-57 -34 28 -20 c15 -11 49 -30 75 -42 l47
-22 85 27 c189 60 338 182 422 346 22 44 28 70 30 136 5 121 -29 218 -102 296
-17 18 -55 64 -84 102 -96 129 -220 232 -330 275 -166 65 -389 61 -580 -10
-125 -47 -174 -78 -245 -152 -137 -142 -217 -292 -250 -468 -13 -71 -14 -275
-1 -340 36 -183 226 -496 424 -698 139 -142 248 -202 432 -236 73 -14 306 -15
425 -2 28 3 75 8 105 11 30 4 73 8 95 11 22 2 63 7 90 10 165 20 452 8 546
-21 51 -17 359 186 490 321 136 142 243 329 254 449 4 39 16 104 27 145 31
116 32 298 3 445 -35 181 -154 388 -317 554 -150 153 -180 173 -663 436 -65
35 -215 92 -290 109 -38 10 -75 19 -81 21 -6 1 -10 -6 -10 -17z m360 -494 c9
-8 16 -24 16 -35 0 -16 -7 -19 -49 -19 -55 0 -68 15 -45 49 18 25 56 27 78 5z
m-104 -149 c17 -21 -26 -66 -58 -61 -15 2 -30 5 -34 5 -18 2 -6 41 17 59 26
21 56 20 75 -3z m211 -6 c12 -23 -2 -54 -32 -70 -39 -20 -83 45 -50 74 34 30
64 28 82 -4z m-1197 -1085 c25 -25 0 -142 -37 -167 -12 -8 -44 -36 -72 -62
-50 -46 -146 -115 -168 -119 -7 -2 -20 -6 -29 -9 -34 -13 -52 -18 -85 -23
l-34 -5 26 51 c57 112 121 203 210 297 50 53 50 53 112 53 43 0 66 -5 77 -16z
m1034 -66 c20 -20 15 -66 -8 -78 -45 -24 -85 22 -60 69 12 23 49 28 68 9z
m-119 -144 c18 -13 21 -22 16 -43 -11 -43 -22 -50 -55 -38 -25 9 -30 17 -30
44 0 20 7 36 18 42 23 14 24 14 51 -5z m229 -42 l3 -33 -43 3 c-32 2 -44 8
-46 21 -6 28 18 48 52 45 27 -3 31 -7 34 -36z"/>
<path d="M6812 4025 c-11 -23 -10 -25 13 -25 26 0 29 7 19 34 -9 23 -19 20
-32 -9z"/>
<path d="M8402 9571 c-14 -9 -11 -57 9 -122 5 -19 14 -97 19 -174 4 -77 13
-152 19 -167 6 -15 13 -58 16 -95 4 -37 8 -86 11 -108 2 -22 6 -60 9 -85 3
-25 7 -74 10 -110 2 -36 7 -83 9 -105 3 -22 8 -74 12 -115 3 -41 8 -88 9 -105
2 -16 6 -61 10 -100 3 -38 8 -81 10 -95 2 -14 7 -50 9 -80 19 -189 17 -177 37
-350 6 -58 13 -116 15 -130 4 -26 14 -345 15 -485 2 -215 -123 -326 -371 -329
-97 -1 -108 1 -151 26 -50 29 -60 41 -174 196 l-75 102 -78 -57 c-95 -71 -214
-140 -265 -154 l-37 -10 21 -22 c73 -77 119 -176 126 -275 l6 -73 -26 10
c-140 54 -235 159 -252 281 -4 25 -8 46 -9 48 -7 6 -91 -30 -130 -57 -56 -39
-188 -173 -179 -181 5 -4 49 -22 98 -40 443 -162 841 -371 1132 -596 112 -86
135 -106 234 -204 254 -252 412 -519 491 -830 l29 -115 2 -380 c1 -209 -1
-404 -6 -433 -54 -376 -237 -712 -572 -1048 -60 -60 -144 -137 -185 -170 -41
-32 -81 -65 -89 -72 -38 -36 -283 -189 -411 -256 l-145 -76 355 6 c195 3 425
7 510 9 85 2 170 4 189 4 27 1 32 4 26 18 -20 53 -36 136 -36 193 l0 65 -92 0
c-94 0 -166 15 -202 41 -17 13 -18 16 -5 24 46 30 132 53 215 57 l90 5 0 122
c0 101 3 127 18 150 l19 28 28 -27 c47 -45 73 -119 73 -202 0 -72 0 -73 25
-73 53 0 120 44 192 126 47 54 53 65 55 97 2 18 5 48 9 67 10 56 15 127 17
257 1 104 5 129 24 171 47 103 151 137 279 94 l58 -20 -5 38 c-9 70 -40 114
-167 240 -121 120 -128 129 -160 210 -76 192 -76 273 -5 565 34 142 44 209 41
303 -1 45 1 82 4 82 3 0 21 -10 40 -22 58 -35 74 -32 127 25 60 63 124 158
145 212 29 80 6 249 -48 341 -54 93 -103 117 -234 117 -85 0 -144 -21 -198
-70 -40 -37 -44 -78 -13 -148 42 -96 72 -107 122 -45 l32 39 44 -30 43 -30
-17 -30 c-26 -44 -37 -51 -88 -51 -31 0 -66 10 -103 29 -70 35 -99 84 -108
188 l-6 71 55 51 c78 70 135 97 224 101 59 3 78 1 105 -16 60 -37 159 -84 165
-79 8 8 -76 172 -108 211 -17 20 -41 36 -60 40 -76 15 -202 92 -258 159 -40
47 -77 116 -94 177 -35 121 -51 198 -53 260 -2 68 7 101 101 360 43 117 52
195 30 266 -7 24 -10 46 -7 48 25 15 80 -7 147 -59 l74 -56 36 17 c20 9 58 42
85 72 61 68 145 231 135 261 -3 12 -8 33 -11 48 -9 55 -37 149 -55 183 -46 94
-150 127 -317 100 -76 -13 -116 -39 -136 -91 -15 -37 -15 -127 0 -151 3 -5 34
-22 67 -37 68 -32 70 -31 88 34 10 40 32 65 55 65 7 0 29 -16 49 -34 46 -44
42 -62 -27 -112 -88 -63 -169 -51 -259 38 -62 62 -65 97 -16 222 22 58 24 60
89 88 155 65 224 69 335 17 57 -27 86 -51 128 -104 15 -19 16 -17 11 35 -13
129 -63 241 -138 310 -18 17 -67 47 -108 66 -41 20 -85 40 -97 46 -67 32 -161
165 -214 302 -28 73 -31 92 -32 191 0 136 7 187 40 288 37 112 99 203 195 286
36 31 38 32 62 15 15 -9 26 -19 26 -23 0 -4 -17 -17 -38 -28 -45 -26 -106 -85
-137 -133 -30 -49 -45 -95 -52 -165 -6 -57 -5 -59 12 -45 11 8 34 32 53 52 31
34 65 52 123 63 41 9 142 9 179 0 39 -8 127 -50 146 -70 21 -20 41 -106 43
-182 l2 -72 -48 -35 c-62 -46 -126 -76 -159 -76 -28 0 -83 29 -121 63 -46 41
-18 107 45 107 31 0 61 -21 63 -43 3 -57 16 -77 46 -77 73 0 129 75 118 156
-8 60 -14 72 -48 105 -53 51 -114 74 -198 74 -74 0 -77 -1 -125 -40 -84 -68
-93 -77 -121 -118 -27 -38 -28 -45 -27 -156 0 -102 3 -123 26 -176 30 -68 111
-176 149 -199 68 -40 77 -40 122 10 44 48 82 73 125 80 50 9 53 1 26 -78 l-24
-72 30 -91 c80 -243 132 -434 134 -492 4 -85 -20 -206 -56 -281 -36 -76 -117
-162 -240 -254 -20 -15 -42 -33 -50 -40 -7 -7 -51 -42 -98 -77 -67 -50 -78
-62 -55 -57 170 37 360 21 410 -34 25 -28 77 -191 70 -220 -11 -47 -52 -95
-104 -123 -57 -31 -50 -32 -183 15 -64 23 -69 34 -39 84 35 58 83 48 121 -26
15 -30 24 -38 38 -33 32 11 70 55 91 104 l21 49 -24 39 c-14 22 -40 56 -57 76
l-32 36 -126 -1 c-144 -2 -179 -14 -220 -77 -48 -75 -64 -139 -66 -277 -2
-123 -1 -133 26 -193 68 -153 171 -253 258 -253 28 0 46 15 76 64 12 20 107
57 122 48 8 -5 6 -34 -8 -102 l-19 -94 40 -91 c73 -168 101 -284 102 -430 1
-211 -37 -303 -204 -497 -78 -91 -136 -174 -161 -233 -18 -41 -29 -85 -22 -85
2 0 26 14 52 30 40 26 57 30 112 30 92 0 137 -27 174 -102 22 -43 30 -76 34
-137 l6 -80 -55 -54 c-70 -70 -125 -80 -180 -30 -37 33 -11 123 34 123 25 0
47 -27 48 -57 0 -45 63 -21 79 29 25 81 18 145 -21 201 -58 81 -205 57 -260
-41 -63 -113 -70 -230 -23 -382 34 -109 51 -143 95 -192 l36 -41 54 57 c54 57
87 69 108 43 9 -10 8 -19 -2 -33 -34 -48 -26 -133 24 -249 5 -11 21 -58 36
-105 26 -78 28 -99 30 -255 1 -112 -3 -192 -12 -235 -8 -36 -16 -75 -18 -88
-8 -41 -45 -131 -72 -174 -25 -41 -123 -142 -130 -135 -2 2 -6 23 -9 48 -3 24
-7 67 -11 94 -3 28 -7 67 -10 88 -3 20 -1 37 3 37 17 -1 52 -27 78 -58 l28
-33 28 43 c54 81 62 116 56 240 -7 130 -11 158 -37 233 -35 102 -95 152 -174
147 -112 -8 -161 -191 -79 -296 l20 -25 28 43 c15 23 33 43 42 43 18 0 45 -52
41 -80 -4 -25 -57 -58 -106 -66 -28 -5 -36 -11 -39 -31 -15 -106 -91 -267
-158 -336 -75 -76 -121 -96 -209 -92 -39 2 -79 8 -88 12 -13 6 -18 4 -18 -8 0
-11 9 -16 30 -16 65 0 83 -84 45 -209 -14 -47 -25 -97 -25 -113 l0 -28 445 0
445 0 0 3570 0 3570 -92 0 c-51 1 -327 3 -613 5 -286 3 -526 1 -533 -4z m356
-253 c-4 -31 -31 -44 -65 -32 -36 12 -41 39 -11 63 21 17 25 18 51 4 20 -10
27 -20 25 -35z m124 -86 c23 -19 13 -39 -24 -47 -54 -12 -82 38 -40 72 16 13
19 12 64 -25z m-140 -89 c22 -20 22 -32 0 -60 l-17 -22 -35 29 c-34 28 -34 29
-16 49 23 25 43 27 68 4z m46 -852 l3 -43 -33 7 c-42 9 -48 13 -48 30 0 17 49
57 64 52 6 -2 12 -23 14 -46z m137 -75 c27 -23 27 -24 10 -50 -10 -14 -25 -26
-35 -26 -44 0 -68 68 -32 89 24 14 25 14 57 -13z m-148 -84 c21 -13 26 -58 7
-76 -27 -28 -58 -17 -62 22 -5 48 22 75 55 54z m-278 -1671 c27 -27 16 -58
-27 -78 -34 -16 -35 -16 -53 6 -11 13 -19 29 -19 36 0 19 42 51 73 54 4 1 16
-8 26 -18z m-128 -153 c35 -43 15 -82 -38 -76 -24 2 -28 8 -31 36 -6 59 34 81
69 40z m213 6 c27 -10 38 -40 25 -68 -14 -29 -29 -37 -58 -29 -18 4 -21 13
-21 54 0 51 11 60 54 43z"/>
<path d="M5248 9365 c-1 -1 -35 -5 -73 -9 -76 -7 -95 -10 -197 -31 -294 -62
-545 -212 -701 -418 -133 -175 -190 -349 -191 -577 -1 -140 11 -187 86 -334
54 -108 105 -175 207 -276 144 -142 291 -231 611 -373 189 -83 539 -220 685
-268 72 -23 147 -53 169 -66 21 -14 53 -27 70 -30 27 -4 37 0 59 27 25 29 60
124 71 193 16 96 86 207 129 207 26 0 20 16 -15 42 -74 52 -159 84 -256 95
l-53 5 5 -27 c7 -36 -26 -120 -68 -172 -31 -39 -34 -41 -48 -25 -26 30 -94
135 -111 173 -9 20 -43 58 -74 84 -83 69 -205 197 -252 265 -99 144 -149 292
-156 455 -4 98 3 145 30 216 32 81 17 86 -72 25 -80 -55 -228 -140 -262 -151
-15 -5 -22 1 -32 30 -13 34 -14 35 -66 35 -29 0 -53 4 -53 8 0 5 -9 18 -20 29
-79 86 -140 240 -148 378 l-5 90 59 -49 c174 -146 254 -262 256 -373 1 -31 6
-53 12 -53 6 0 56 22 111 49 93 45 107 56 198 154 264 287 522 422 822 432
108 4 180 -8 308 -49 324 -107 552 -365 688 -781 73 -222 79 -244 79 -280 0
-20 8 -50 17 -68 15 -28 17 -69 18 -352 0 -352 -13 -552 -50 -772 l-6 -32 123
74 c136 82 172 95 196 72 14 -15 18 -14 44 4 27 20 27 21 13 50 -14 27 -17 28
-38 15 -50 -32 -62 -29 -115 23 -59 58 -58 57 -75 187 -14 107 -9 150 22 178
18 16 20 15 65 -35 25 -28 46 -57 46 -64 0 -7 3 -15 8 -17 10 -4 72 -134 72
-151 0 -8 5 -28 11 -46 l11 -32 22 20 c57 53 186 95 325 105 41 3 76 7 78 9 7
7 -90 284 -153 436 -81 193 -268 572 -329 664 -25 38 -45 71 -45 74 0 11 -129
184 -200 268 -69 82 -165 179 -245 250 -100 88 -295 218 -399 265 -34 15 -81
37 -106 48 -121 55 -206 88 -245 93 -2 0 -28 7 -57 15 -57 15 -195 39 -323 56
-72 9 -479 21 -487 13z m-144 -240 c29 -22 11 -69 -27 -73 -50 -6 -75 38 -41
72 19 20 43 20 68 1z m-99 -141 c17 -18 14 -56 -7 -81 -15 -19 -24 -16 -53 14
-29 32 -31 46 -9 67 20 21 48 20 69 0z m231 -15 c3 -6 1 -22 -7 -35 -23 -43
-119 -22 -102 22 15 38 88 47 109 13z m-519 -538 c18 -1 45 -59 36 -75 -41
-72 -147 -135 -269 -161 -89 -18 -215 -27 -232 -16 -23 14 141 142 258 202 65
33 151 58 180 53 8 -1 21 -3 27 -3z m219 -98 c20 -20 40 -48 45 -61 5 -13 11
-113 14 -221 l4 -196 -35 40 c-85 96 -157 253 -169 371 -7 58 -6 62 20 83 42
32 79 27 121 -16z m296 -665 c10 -16 1 -58 -15 -75 -16 -17 -76 18 -73 42 7
45 65 67 88 33z m-132 -148 c20 -17 22 -25 14 -48 -14 -40 -63 -38 -83 2 -13
27 -12 31 9 48 28 23 32 23 60 -2z m188 -1 c36 -12 61 -63 35 -73 -41 -16 -87
0 -105 35 -2 6 30 49 37 49 1 0 16 -5 33 -11z"/>
<path d="M5918 9056 c-80 -22 -83 -30 -36 -89 122 -156 191 -311 204 -464 5
-60 4 -62 -27 -84 -18 -12 -52 -24 -79 -27 -46 -4 -49 -3 -74 34 -35 52 -68
157 -82 259 -2 22 -7 50 -9 62 -3 11 -8 81 -11 155 -3 73 -6 134 -7 135 -4 4
-145 -49 -211 -79 -200 -91 -316 -237 -342 -433 -3 -27 -12 -77 -19 -110 -13
-58 -13 -233 -1 -285 3 -14 14 -50 24 -80 64 -185 153 -285 309 -350 172 -72
287 -27 465 181 25 30 49 66 52 79 25 101 2 213 -59 289 -19 24 -35 40 -36 35
-5 -59 -18 -79 -68 -100 -77 -33 -171 -44 -341 -39 -178 5 -213 9 -242 29 -18
13 -17 15 12 40 37 31 209 115 300 147 47 16 89 23 150 23 74 1 93 -3 145 -29
33 -16 65 -29 70 -29 6 -1 23 -17 38 -36 15 -19 33 -42 40 -50 7 -8 23 -40 36
-70 62 -141 3 -300 -173 -468 l-66 -63 55 -25 c31 -13 62 -24 69 -24 25 0 212
-98 239 -126 19 -19 27 -37 27 -61 l0 -34 30 21 c35 25 38 36 10 45 -40 13
-67 84 -50 131 6 14 45 60 87 103 77 77 146 122 211 136 32 7 33 6 27 -25 -16
-91 -96 -225 -175 -292 -37 -32 -38 -36 -25 -55 8 -11 27 -24 41 -27 84 -22
270 -204 262 -258 -4 -29 -22 -30 -113 -5 -102 27 -173 65 -232 124 -29 28
-53 51 -54 50 0 -1 -2 -12 -5 -25 -11 -61 -84 -167 -201 -292 -22 -24 -28 -37
-20 -41 7 -4 82 -30 167 -58 85 -28 271 -88 413 -135 268 -88 307 -94 313 -51
2 11 6 42 9 69 4 27 9 58 11 70 12 58 19 117 39 321 12 128 13 550 1 630 -3
22 -11 74 -17 115 -66 467 -305 858 -659 1078 -67 41 -69 42 -250 58 -30 3
-71 7 -90 9 -19 2 -56 -2 -82 -9z m759 -480 c12 -12 -191 -172 -279 -221 -125
-68 -246 -85 -288 -41 -81 87 75 212 317 255 82 14 238 19 250 7z"/>
<path d="M3420 2445 c-23 -13 -18 -14 60 -14 85 0 87 10 5 22 -26 4 -49 1 -65
-8z"/>
</g>
</svg>
